<?xml version="1.0" encoding="utf-8"?>
<!-- Generator: Adobe Illustrator 20.1.0, SVG Export Plug-In . SVG Version: 6.00 Build 0)  -->
<svg version="1.1" id="Layer_1" xmlns="http://www.w3.org/2000/svg" xmlns:xlink="http://www.w3.org/1999/xlink" x="0px" y="0px"
	 viewBox="0 0 959 190" style="enable-background:new 0 0 959 190;" xml:space="preserve">
<style type="text/css">
	.st0{opacity:0.75;fill:#FFFFFF;enable-background:new    ;}
	.st1{fill:#FFFFFF;}
	.st2{opacity:0.5;fill:#FFFFFF;enable-background:new    ;}
</style>
<path class="st0" d="M827.9,84.2L877,56.1l-12.2-21c-2.6-4.4-7.3-7.1-12.4-7.1h-24.5L827.9,84.2L827.9,84.2z"/>
<path class="st1" d="M769.4,61.4l-12.2,21c-2.6,4.4-2.6,9.8,0,14.2l27.6,47.5c2.6,4.4,7.3,7.1,12.4,7.1h55.2c5.1,0,9.8-2.7,12.4-7.1
	l12.2-21L769.4,61.4z"/>
<path class="st1" d="M821.6,84.2V27.9h-24.5c-5.1,0-9.8,2.7-12.4,7.1l-12.2,21L821.6,84.2z"/>
<path class="st2" d="M892.4,82.5l-12.2-21L831,89.6l49.1,28.1l12.2-21C894.9,92.3,894.9,86.9,892.4,82.5"/>
<g>
	<path id="SVGID_1_" class="st1" d="M117.7,58.6c-7.7,0-14.8,3-20.1,8.3c-0.3,0.3-0.5,0.7-0.8,1c-5.2-5.9-12.9-9.3-22.4-9.3
		c-7.7,0-15.3,3-20.6,8.3C48,72.8,44.6,81,44.6,90.5v38.2H59V89.6c0-5.9,3.4-17,15-17c7.2,0,12.8,3.3,14.1,12.2c0,0,0,3.8,0,5.8
		v38.2h15.5V90.3c0-1.9,0.1-3.7,0-5.6c0.5-6.1,5.1-12.1,13.9-12.1c8.7,0,15.3,7.3,15.3,16.7v39.5h14.6V90.3
		C147.3,71,135.9,58.6,117.7,58.6"/>
</g>
<path class="st1" d="M117.7,58.6c-7.7,0-14.8,3-20.1,8.3c-0.3,0.3-0.5,0.7-0.8,1c-5.2-5.9-12.9-9.3-22.4-9.3c-7.7,0-15.3,3-20.6,8.3
	C48,72.8,44.6,81,44.6,90.5v38.2H59V89.6c0-5.9,3.4-17,15-17c7.2,0,12.8,3.3,14.1,12.2c0,0,0,3.8,0,5.8v38.2h15.5V90.3
	c0-1.9,0.1-3.7,0-5.6c0.5-6.1,5.1-12.1,13.9-12.1c8.7,0,15.3,7.3,15.3,16.7v39.5h14.6V90.3C147.3,71,135.9,58.6,117.7,58.6"/>
<g>
	<path id="SVGID_5_" class="st1" d="M233.9,94.4c0,20.3-14.1,35.5-35.8,35.5c-21.5,0-35.5-15.3-35.5-35.5
		c0-20.1,14.1-35.7,35.5-35.7C219.3,58.7,233.9,74.3,233.9,94.4 M176.9,94.4c0,12.2,8,22.2,21.1,22.2c13.3,0,21.3-10,21.3-22.2
		c0-12.1-8.7-22.5-21.3-22.5C184.9,71.9,176.9,82.3,176.9,94.4"/>
</g>
<path class="st1" d="M233.9,94.4c0,20.3-14.1,35.5-35.8,35.5c-21.5,0-35.5-15.3-35.5-35.5c0-20.1,14.1-35.7,35.5-35.7
	C219.3,58.7,233.9,74.3,233.9,94.4 M176.9,94.4c0,12.2,8,22.2,21.1,22.2c13.3,0,21.3-10,21.3-22.2c0-12.1-8.7-22.5-21.3-22.5
	C184.9,71.9,176.9,82.3,176.9,94.4"/>
<g>
	<path id="SVGID_9_" class="st1" d="M279.1,58.6c-16.6,0-31.9,11.6-31.9,32.4v37.9h14.2v-39c0-7.9,5.1-21.3,22.6-18.3
		c8,1.4,13.9,8.3,13.9,16.4v40.7h14.2V90.6C311.9,70.7,298.4,58.6,279.1,58.6z"/>
</g>
<path class="st1" d="M279.1,58.6c-16.6,0-31.9,11.6-31.9,32.4v37.9h14.2v-39c0-7.9,5.1-21.3,22.6-18.3c8,1.4,13.9,8.3,13.9,16.4
	v40.7h14.2V90.6C311.9,70.7,298.4,58.6,279.1,58.6z"/>
<path id="SVGID_13_" class="st1" d="M341.6,99.7c1.3,10.3,9.9,17.1,22.4,17.1c6.9,0,15.7-2.6,19.9-7.3l9.3,9
	c-7.1,7.7-18.9,11.6-29.4,11.6c-22.5,0-37-14.2-37-36c0-20.7,14.6-35.4,36-35.4c22.1,0,37.1,13.4,34.5,41.1L341.6,99.7L341.6,99.7z
	 M383.4,87.7c-0.8-10.8-8.8-16.4-20.3-16.4c-10.4,0-19,5.7-21.3,16.4H383.4z"/>
<path class="st1" d="M341.6,99.7c1.3,10.3,9.9,17.1,22.4,17.1c6.9,0,15.7-2.6,19.9-7.3l9.3,9c-7.1,7.7-18.9,11.6-29.4,11.6
	c-22.5,0-37-14.2-37-36c0-20.7,14.6-35.4,36-35.4c22.1,0,37.1,13.4,34.5,41.1L341.6,99.7L341.6,99.7z M383.4,87.7
	c-0.8-10.8-8.8-16.4-20.3-16.4c-10.4,0-19,5.7-21.3,16.4H383.4z"/>
<g>
	<polygon id="SVGID_17_" class="st1" points="476.9,59.9 432.5,162.1 416.3,162.1 430.8,128.7 402.7,59.9 419.9,59.9 432,92.8 
		439,112.7 446.5,93.1 460.5,59.9 	"/>
</g>
<polygon class="st1" points="476.9,59.9 432.5,162.1 416.3,162.1 430.8,128.7 402.7,59.9 419.9,59.9 432,92.8 439,112.7 446.5,93.1 
	460.5,59.9 "/>
<g>
	<path id="SVGID_21_" class="st1" d="M504.3,30.4V70c6.1-8.4,14.3-11.2,22.6-11.2c19.6,0,28.7,13,28.7,32.8v37.3H541V91.7
		c0-13-6.8-19.5-17.5-19.5c-11.3,0-19.2,9.3-19.2,20.6v36h-14.6V30.4H504.3z"/>
</g>
<path class="st1" d="M504.3,30.4V70c6.1-8.4,14.3-11.2,22.6-11.2c19.6,0,28.7,13,28.7,32.8v37.3H541V91.7c0-13-6.8-19.5-17.5-19.5
	c-11.3,0-19.2,9.3-19.2,20.6v36h-14.6V30.4H504.3z"/>
<g>
	<path id="SVGID_25_" class="st1" d="M604.6,130.1c16.5,0,31.9-11.8,31.9-32.5V59.7h-14.1V98c0,7.1-4.2,18.7-17.7,18.7
		c-10.3,0-18.7-8.4-18.7-18.7V59.7h-14.1v38.2C571.8,117.8,585.4,130.1,604.6,130.1"/>
</g>
<path class="st1" d="M604.6,130.1c16.5,0,31.9-11.8,31.9-32.5V59.7h-14.1V98c0,7.1-4.2,18.7-17.7,18.7c-10.3,0-18.7-8.4-18.7-18.7
	V59.7h-14.1v38.2C571.8,117.8,585.4,130.1,604.6,130.1"/>
<path class="st1" d="M690.4,59c-15.8,0-22.8,10.6-22.9,10.7V30.4h-14.6v63.4c0,21.5,17.1,36.4,37.6,36.4c19.8,0,36.4-13.5,36.4-35.6
	C726.9,73.9,712.5,59,690.4,59z M690.5,116.9c-12.4,0-23.2-9.1-23.2-22.3c0-12.3,9.3-22.3,23.2-22.3s21.8,10,21.8,22.3
	C712.2,108.2,702.8,116.9,690.5,116.9z"/>
<g id="Layer_2">
	<g>
		<path class="st1" d="M904.2,56.2c-0.1,0-0.2,0-0.3,0c-4.1-0.1-7.8-1.7-10.7-4.6c-2.8-2.9-4.3-6.8-4.3-10.8h0.7h-0.7
			c0.1-4.1,1.7-7.8,4.6-10.7c2.9-2.8,6.8-4.3,10.8-4.3c8.4,0.1,15.1,7.1,14.9,15.5C919.2,49.6,912.4,56.2,904.2,56.2z M904.1,27.2
			c-3.6,0-7,1.4-9.6,3.9c-2.7,2.6-4.1,6-4.2,9.7c-0.1,3.7,1.3,7.2,3.9,9.8c2.6,2.7,6,4.1,9.7,4.2c7.6,0.1,13.9-5.9,14-13.5
			s-5.9-13.9-13.5-14C904.3,27.2,904.2,27.2,904.1,27.2z"/>
	</g>
	<g>
		<path class="st1" d="M901.5,42.3v6.3h-2v-15h4.3c1,0,1.8,0.1,2.5,0.3s1.3,0.5,1.7,0.8c0.5,0.4,0.8,0.8,1,1.3s0.3,1.1,0.3,1.7
			c0,0.5-0.1,1-0.3,1.5s-0.4,0.9-0.7,1.2c-0.3,0.4-0.7,0.7-1.2,0.9c-0.5,0.3-1,0.5-1.6,0.6c0.3,0.1,0.5,0.4,0.7,0.6l4.4,6h-1.8
			c-0.4,0-0.6-0.1-0.8-0.4l-3.9-5.4c-0.1-0.2-0.2-0.3-0.4-0.4c-0.1-0.1-0.3-0.1-0.6-0.1h-1.6V42.3z M901.5,40.9h2.1
			c0.6,0,1.1-0.1,1.6-0.2c0.5-0.1,0.8-0.3,1.1-0.6s0.5-0.6,0.7-0.9c0.2-0.4,0.2-0.8,0.2-1.2c0-0.9-0.3-1.6-0.9-2s-1.5-0.7-2.6-0.7
			h-2.2L901.5,40.9L901.5,40.9z"/>
	</g>
</g>
</svg>
